<?xml version="1.0" ?><!-- Uploaded to: SVG Repo, www.svgrepo.com, Generator: SVG Repo Mixer Tools -->
<svg width="800px" height="800px" viewBox="0 0 64 64" id="Flat" xmlns="http://www.w3.org/2000/svg"><polygon points="38 22 26 22 23 3 42 3 38 22" style="fill:#ac8168"/><path d="M43.8,61H20.2A8.1,8.1,0,0,1,12,53,41.2,41.2,0,0,1,25.333,23H37.641A37.865,37.865,0,0,1,52,53,8.1,8.1,0,0,1,43.8,61Z" style="fill:#ac8168"/><path d="M30,21a1,1,0,0,1-.985-.836l-2-12a1,1,0,1,1,1.972-.328l2,12a1,1,0,0,1-.821,1.15A.946.946,0,0,1,30,21Z" style="fill:#714124"/><path d="M34,21a.948.948,0,0,1-.2-.02A1,1,0,0,1,33.02,19.8l2-10a1,1,0,0,1,1.96.392l-2,10A1,1,0,0,1,34,21Z" style="fill:#714124"/><polygon points="30 24 35 19 50 33.167 45 39 30 24" style="fill:#ffac00"/><polygon points="34 24 29 19 14 33.167 19 39 34 24" style="fill:#ffac00"/><rect height="6" style="fill:#fce666" width="6" x="29" y="19"/><polygon points="19 25 29 25 29 19 21 17 19 25" style="fill:#ffac00"/><polygon points="45 25 35 25 35 19 43 17 45 25" style="fill:#ffac00"/></svg>